<?xml version="1.0" standalone="no"?>
<!DOCTYPE svg PUBLIC "-//W3C//DTD SVG 20010904//EN"
 "http://www.w3.org/TR/2001/REC-SVG-20010904/DTD/svg10.dtd">
<svg version="1.0" xmlns="http://www.w3.org/2000/svg"
 width="250pt" height="34pt" viewBox="0 0 400.000000 97.000000" fill="none"
 preserveAspectRatio="xMidYMid meet" stroke="#222222" stroke-width="2">
 
<metadata>
Created by potrace 1.16, written by Peter Selinger 2001-2019
</metadata>
<g transform="translate(0.000000,97.000000) scale(0.100000,-0.100000)"
fill="#000000" stroke="none">
<path d="M1955 780 l7 -30 -911 0 -911 0 0 -265 0 -265 911 0 911 0 -7 -30 -7
-30 936 0 936 0 0 325 0 325 -936 0 -936 0 7 -30z m1805 -295 l0 -255 -875 0
-875 0 0 255 0 255 875 0 875 0 0 -255z m-2202 65 l22 55 44 -3 43 -4 -38 -86
c-30 -68 -39 -100 -39 -144 0 -46 -3 -58 -16 -58 -12 0 -15 9 -12 43 3 41 2
42 -27 42 -24 0 -31 -5 -33 -23 -5 -33 -22 -16 -22 21 0 18 -18 71 -39 119
l-39 87 42 3 c41 3 41 3 66 -52 l26 -54 22 54z m-1113 35 c42 -17 55 -46 55
-119 l0 -53 -42 -13 c-24 -7 -49 -14 -55 -16 -7 -2 -13 -11 -14 -21 0 -14 -2
-13 -10 5 -6 17 -15 22 -31 20 -19 -2 -23 -9 -23 -38 0 -19 -4 -35 -10 -35 -5
0 -9 17 -7 38 2 32 -1 39 -22 47 -74 28 -76 161 -2 190 34 14 124 11 161 -5z
m324 -9 c27 -25 28 -72 1 -88 -26 -17 -25 -21 9 -60 29 -34 48 -89 36 -109
-11 -16 -45 26 -45 55 0 23 -16 36 -46 36 -10 0 -14 -15 -14 -60 0 -33 -4 -60
-10 -60 -6 0 -10 27 -10 60 0 67 -20 110 -51 110 -16 0 -19 -8 -19 -50 0 -27
-4 -50 -10 -50 -5 0 -10 7 -10 16 0 8 -5 12 -11 9 -6 -4 -7 -19 -4 -36 5 -22
3 -29 -9 -29 -12 0 -16 11 -17 38 -2 30 -3 32 -6 10 -2 -16 -9 -28 -14 -28 -5
0 -9 57 -9 131 l0 131 109 -4 c90 -2 113 -6 130 -22z m281 9 c37 -19 50 -43
50 -92 0 -47 -19 -76 -62 -94 -18 -7 -39 -19 -46 -26 -18 -18 -30 -16 -36 5
-3 9 -3 -4 -1 -30 5 -51 -10 -74 -23 -37 -6 15 -11 19 -16 11 -13 -21 -26 -3
-26 35 0 25 -7 40 -24 54 -14 11 -30 35 -36 54 -10 30 -9 41 7 72 10 21 29 43
43 50 35 18 135 16 170 -2z m300 -7 c72 -49 58 -145 -25 -184 -16 -7 -38 -19
-48 -26 -14 -11 -19 -10 -27 1 -5 10 -7 1 -3 -26 6 -44 -14 -72 -24 -34 -4 17
-8 19 -19 10 -18 -15 -29 11 -20 45 5 20 0 29 -23 45 -55 40 -54 137 2 171 47
29 143 27 187 -2z m560 -10 l0 -33 -67 3 c-54 2 -64 0 -50 -9 10 -6 36 -9 58
-7 38 3 39 3 39 -29 0 -30 -3 -33 -22 -28 -13 3 -41 2 -63 -4 -37 -8 -34 -9
36 -10 l76 -1 0 -30 0 -29 -106 -3 -106 -3 0 -50 c0 -27 -4 -52 -10 -55 -6 -3
-11 53 -13 158 l-2 162 115 0 115 0 0 -32z"/>
<path d="M2096 589 c-40 -31 -33 -78 14 -101 l35 -18 -42 0 c-24 0 -43 -3 -43
-8 0 -21 35 -53 70 -63 31 -10 40 -17 40 -35 0 -17 4 -21 20 -17 14 4 19 11
15 23 -5 14 2 19 38 24 54 8 87 37 87 76 0 31 -29 59 -65 62 -11 0 0 4 25 7
l45 6 -32 33 c-30 30 -35 32 -106 32 -61 0 -79 -4 -101 -21z"/>
<path d="M2350 573 c0 -31 2 -33 35 -33 l35 0 0 -105 c0 -63 4 -105 10 -105 6
0 10 11 10 25 0 24 24 44 37 32 3 -3 5 -28 5 -56 0 -45 2 -49 18 -39 15 10 16
25 12 129 l-5 119 42 0 c39 0 41 2 41 29 l0 30 -120 3 -120 3 0 -32z"/>
<path d="M2620 605 c0 0 -1 -60 -3 -133 -1 -72 1 -132 6 -132 4 0 7 11 7 25 0
14 5 25 10 25 6 0 10 -16 8 -36 -2 -23 2 -39 10 -41 8 -3 12 9 13 39 1 24 3
35 6 26 9 -36 23 -17 23 32 0 47 2 50 25 50 36 0 58 -48 53 -118 -2 -38 1 -56
10 -59 9 -4 12 13 12 61 0 50 3 66 14 66 30 0 46 -13 46 -36 0 -24 27 -64 44
-64 20 0 -6 85 -34 114 -35 34 -36 40 -10 66 23 23 26 58 6 86 -12 16 -30 20
-130 24 -64 3 -116 5 -116 5z"/>
<path d="M3040 600 l-115 -5 0 -162 c-1 -133 2 -163 13 -163 11 0 13 13 10 58
l-3 57 108 3 c106 3 107 3 107 27 0 38 0 38 -72 36 -43 -2 -68 2 -68 8 0 7 23
11 58 11 56 0 57 0 58 30 1 29 0 29 -60 33 l-61 3 71 2 71 2 1 35 c1 19 0 34
-1 33 -1 -1 -54 -4 -117 -8z"/>
<path d="M3313 603 l-113 -4 0 -118 c0 -65 -3 -139 -6 -165 -6 -38 -4 -46 10
-46 13 0 16 11 16 60 l0 60 109 0 109 0 -3 32 -2 31 -72 -2 c-45 -1 -71 2 -71
8 0 7 24 11 58 11 58 0 59 0 60 30 1 29 0 29 -61 33 l-62 3 73 2 72 2 0 35 c0
19 -1 34 -2 33 -2 -1 -54 -4 -115 -5z"/>
<path d="M3460 570 c0 -28 3 -30 35 -30 l35 0 0 -105 c0 -63 4 -105 10 -105 6
0 10 11 10 25 0 24 24 44 37 32 3 -3 5 -29 5 -56 0 -45 2 -49 16 -35 12 13 15
38 13 130 l-2 114 35 0 c33 0 36 2 36 30 l0 30 -115 0 -115 0 0 -30z"/>
</g>
</svg>
