<?xml version="1.0" standalone="no"?>
<!DOCTYPE svg PUBLIC "-//W3C//DTD SVG 20010904//EN"
 "http://www.w3.org/TR/2001/REC-SVG-20010904/DTD/svg10.dtd">
<svg version="1.0" xmlns="http://www.w3.org/2000/svg"
 width="250pt" height="30pt" viewBox="0 0 400.000000 59.000000"
 preserveAspectRatio="xMidYMid meet">
<metadata>
Created by potrace 1.16, written by Peter Selinger 2001-2019
</metadata>
<g transform="translate(0.000000,59.000000) scale(0.100000,-0.100000)"
fill="#000000" stroke="none">
<path d="M0 295 l0 -295 2000 0 2000 0 0 295 0 295 -2000 0 -2000 0 0 -295z
m3955 5 l0 -245 -1955 0 -1955 0 -3 235 c-1 129 0 240 3 247 3 11 383 13 1957
11 l1953 -3 0 -245z"/>
<path d="M1290 485 c-9 -11 -34 -15 -89 -15 -42 -1 -94 -7 -116 -15 -27 -10
-43 -11 -52 -4 -21 18 -163 22 -214 6 -31 -10 -52 -11 -64 -5 -9 6 -54 12 -98
14 -45 3 -99 10 -119 16 -30 9 -41 8 -54 -3 -12 -10 -47 -14 -123 -14 -93 0
-110 -3 -143 -23 -52 -33 -68 -62 -68 -124 0 -54 16 -90 52 -116 10 -7 18 -22
18 -33 0 -34 18 -57 56 -69 33 -11 41 -9 95 19 70 37 72 37 111 10 19 -14 45
-22 71 -22 23 0 55 -6 72 -15 23 -12 38 -13 75 -4 78 19 138 24 145 12 3 -5
25 -10 49 -10 43 0 50 4 101 65 l25 30 27 -33 c35 -41 76 -62 120 -62 45 0 69
14 88 51 9 16 27 34 40 39 20 8 29 4 54 -20 16 -17 36 -30 43 -30 8 0 31 -9
53 -20 22 -11 46 -18 55 -15 9 3 31 -2 49 -11 42 -21 94 -11 121 23 11 14 20
32 20 39 0 18 72 19 99 2 17 -10 27 -5 76 36 39 34 53 52 46 60 -6 7 -6 18 -1
26 6 9 2 19 -11 31 -16 13 -17 18 -6 28 8 6 13 26 13 44 -1 27 -12 43 -54 80
-50 45 -54 47 -75 32 -30 -21 -144 -21 -167 0 -15 13 -22 14 -44 3 -22 -10
-29 -9 -36 2 -7 11 -15 11 -48 -4 -37 -17 -41 -17 -71 -1 -25 12 -36 14 -46 5
-10 -8 -19 -8 -34 -1 -25 14 -26 14 -41 -4z"/>
<path d="M2409 474 c-13 -13 -23 -13 -62 -3 -73 18 -169 -3 -213 -48 -27 -27
-34 -42 -34 -72 0 -22 -6 -44 -15 -51 -22 -18 -18 -35 10 -50 14 -7 25 -17 25
-21 0 -4 16 -17 36 -30 20 -12 47 -32 59 -45 33 -33 89 -32 137 1 44 30 64 31
77 6 13 -24 102 -81 127 -81 11 0 35 8 54 19 41 21 118 19 185 -5 31 -12 48
-13 69 -5 19 8 33 8 47 0 29 -15 96 -14 116 2 9 8 22 29 30 47 19 45 47 42 73
-8 15 -29 29 -41 55 -49 55 -15 115 10 115 49 0 39 56 54 98 24 13 -9 29 -14
35 -11 7 3 33 -9 57 -26 55 -38 103 -41 148 -9 30 22 32 27 32 87 0 63 1 64
48 109 63 60 63 86 1 144 -50 45 -63 49 -93 27 -27 -20 -129 -20 -146 0 -16
19 -60 19 -96 0 -37 -19 -115 -19 -140 0 -25 19 -88 19 -104 0 -17 -21 -114
-20 -150 2 -27 15 -30 15 -54 0 -35 -23 -207 -24 -226 -2 -16 19 -60 19 -96 0
-36 -19 -111 -19 -144 0 -32 18 -42 18 -61 -1z"/>
</g>
</svg>
